<?xml version="1.0" encoding="utf-8"?>
<!-- Generator: Adobe Illustrator 24.0.1, SVG Export Plug-In . SVG Version: 6.00 Build 0)  -->
<svg version="1.1" id="Layer_1" xmlns="http://www.w3.org/2000/svg" xmlns:xlink="http://www.w3.org/1999/xlink" x="0px" y="0px"
	 viewBox="0 0 512 512" style="enable-background:new 0 0 512 512;" xml:space="preserve">
<style type="text/css">
	.st0{fill:#ECFF31;}
	.st1{fill-rule:evenodd;clip-rule:evenodd;fill:#9D4B09;}
	.st2{fill-rule:evenodd;clip-rule:evenodd;fill:#F9B916;}
	.st3{fill-rule:evenodd;clip-rule:evenodd;}
	.st4{stroke:#4D443C;stroke-miterlimit:10;}
</style>
<circle cx="256" cy="256" r="254.25"/>
<circle class="st0" cx="256" cy="256" r="228.82"/>
<path class="st1" d="M441.1,306.55c16.02,5.34,22.99,27.44,15.73,49.1c-7.27,21.66-26.26,35.16-42.13,29.67s-23.14-28.04-15.73-49.1
	S425.22,301.06,441.1,306.55"/>
<path d="M453.71,326.13c-1.84-7.18-7.03-13.04-13.94-15.73l0,0c-7.14-2.02-14.82-0.48-20.62,4.15c-15.49,12-22.27,32.11-17.21,51.03
	c1.84,7.18,7.03,13.04,13.94,15.73l0,0c7.14,2.02,14.82,0.48,20.62-4.15c7.7-5.72,13.4-13.71,16.32-22.85l0,0
	C456.07,345.25,456.38,335.38,453.71,326.13 M442.43,302.54c9.27,3.63,16.27,11.45,18.84,21.07c3.44,10.99,3.28,22.78-0.45,33.68
	l0,0c-3.48,10.74-10.22,20.12-19.29,26.85c-7.87,6.09-18.17,8.07-27.74,5.34l0,0c-9.27-3.63-16.27-11.45-18.84-21.07
	c-3.22-10.94-2.91-22.62,0.89-33.38l0,0c3.47-10.87,10.27-20.36,19.43-27.15c7.7-5.95,17.74-7.98,27.15-5.49V302.54z"/>
<path d="M435.46,312.78c1.76-1.56,4.45-1.39,6.01,0.37c1.56,1.76,1.39,4.45-0.37,6.01l0,0c-16.17,14.83-12.76,22.55-9.64,29.67
	c3.12,7.12,7.71,18.69-8.75,32.04c-1.8,1.47-4.46,1.21-5.93-0.59c-1.47-1.8-1.21-4.46,0.59-5.93c11.57-9.35,8.9-15.58,6.23-22.25
	c-4.3-10.38-8.9-21.51,11.87-39.76"/>
<path class="st1" d="M335.32,340.96c10.38-13.35,33.38-12.61,51.63,1.48c18.25,14.09,24.48,36.35,14.09,49.7
	s-33.38,12.61-51.63-1.48C331.17,376.57,324.94,354.32,335.32,340.96"/>
<path d="M358.02,335.62c-7.37-0.66-14.6,2.27-19.43,7.86l0,0c-4.27,6.04-5.38,13.77-2.97,20.77c6.21,18.55,22.92,31.59,42.43,33.08
	c7.29,0.62,14.44-2.24,19.29-7.71l0,0c4.05-6.03,5.04-13.61,2.67-20.47c-2.88-9.11-8.53-17.1-16.17-22.85l0,0
	c-7.47-6.04-16.66-9.57-26.26-10.09 M331.17,339.18L331.17,339.18c6.52-8.1,16.64-12.44,27-11.57
	c23.26,1.58,43.23,17.14,50.44,39.31c3.16,9.56,1.5,20.06-4.45,28.19l0,0c-6.46,7.71-16.23,11.85-26.26,11.13
	c-23.26-1.58-43.23-17.14-50.44-39.31c-3.27-9.56-1.72-20.11,4.15-28.33L331.17,339.18z"/>
<path d="M339.92,348.53c-0.45-2.33,1.07-4.59,3.4-5.04c1.74-0.34,3.51,0.43,4.46,1.93c8.01,20.03,16.91,19.58,25.37,18.99
	s20.18-1.19,27.44,18.84c0.78,2.21-0.38,4.64-2.6,5.41c-2.21,0.78-4.64-0.38-5.41-2.6l0,0c-5.04-13.94-11.72-13.65-18.99-13.2
	C362.32,372.86,350.31,374.19,339.92,348.53"/>
<path class="st2" d="M130.9,223.77h195.97v51.48c0,60.38-34.86,96.28-78.18,96.28h-39.16c-43.32,0.59-78.63-35.75-78.63-96.13
	V223.77z"/>
<path d="M216.94,228.07h-81.3v47.32c-1.11,24.07,6.18,47.77,20.62,67.05c13.01,16.01,32.63,25.19,53.26,24.92h39.16
	c20.68,0.31,40.36-8.87,53.41-24.92c14.31-19.12,21.6-42.59,20.62-66.46v-47.92H216.94z M130.9,219.61h195.97
	c2.38,0,4.3,1.93,4.3,4.3v0v51.48c1.05,25.78-6.81,51.13-22.25,71.8c-14.38,18.09-36.23,28.63-59.34,28.63h-40.05
	c-23.11,0-44.96-10.54-59.34-28.63c-15.55-20.63-23.51-45.99-22.55-71.8v-51.63C127.64,221.8,128.99,220.09,130.9,219.61z"/>
<path d="M318.86,330.88c-1.82,1.52-4.54,1.28-6.06-0.54c-1.52-1.82-1.28-4.54,0.54-6.06c0.45-0.37,0.96-0.65,1.52-0.82l14.83-7.27
	c6.68-3.26,12.91-6.53,18.84-9.94c13.05-5.9,22.64-17.51,25.96-31.45c0.68-5.02,0.07-10.12-1.78-14.83
	c-1.76-4.59-4.49-8.74-8.01-12.16c-4.21-4.84-10.52-7.34-16.91-6.68c-3.09,0.66-5.99,2.03-8.46,4.01
	c-3.43,3.15-6.08,7.06-7.71,11.42c-0.4,2.34-2.62,3.92-4.97,3.51s-3.92-2.62-3.51-4.97c0.11-0.66,0.37-1.28,0.77-1.81
	c2.14-5.71,5.66-10.81,10.24-14.83c3.45-2.83,7.51-4.81,11.87-5.79c9.2-1.4,18.49,1.88,24.77,8.75c4.39,4.17,7.83,9.23,10.09,14.83
	c2.43,6.22,3.2,12.97,2.23,19.58c-3.55,16.43-14.5,30.29-29.67,37.53c-5.93,3.41-12.46,6.68-19.29,10.09l-14.09,7.27"/>
<path class="st2" d="M233.41,397.49h-85.45c-13.2,0-24.18-16.62-25.52-37.83c5.04,0,10.53-0.74,16.76-0.74h179.95
	c6.23,0,11.72,0.74,16.76,0.74c-1.34,21.21-12.31,37.83-25.52,37.83H233.41z"/>
<path d="M224.95,393.33h85.45c5.72-0.59,10.78-3.98,13.5-9.05c3.95-6.24,6.43-13.29,7.27-20.62h-3.26h-8.75H139.21h-8.75h-3.26
	c0.84,7.33,3.32,14.38,7.27,20.62c2.72,5.07,7.78,8.46,13.5,9.05H224.95z M233.41,401.79h-85.45c-8.58-0.51-16.34-5.3-20.62-12.76
	c-5.59-8.91-8.72-19.15-9.05-29.67c-0.17-2.29,1.56-4.28,3.84-4.44c0.05,0,0.11-0.01,0.16-0.01l0,0h7.12h9.35h180.39h9.35h7.42
	c2.29-0.08,4.22,1.71,4.3,4c0,0.05,0,0.1,0,0.15l0,0c-0.33,10.52-3.46,20.76-9.05,29.67c-4.22,7.63-12.06,12.56-20.77,13.05H233.41z
	"/>
<path class="st1" d="M90.84,373.3c-2.08-16.76,14.83-32.64,37.53-35.46c22.7-2.82,43.02,8.31,44.5,25.07
	c1.48,16.76-14.83,32.64-37.53,35.46C112.65,401.19,92.33,390.07,90.84,373.3"/>
<path d="M103.16,353.43c-5.49,4.62-8.5,11.53-8.16,18.69l0,0c1.41,7.12,6.08,13.16,12.61,16.32c8.48,4.42,18.13,6.08,27.59,4.75l0,0
	c9.32-0.78,18.17-4.41,25.37-10.38c5.66-4.75,8.69-11.92,8.16-19.29l0,0c-1.26-7.29-5.95-13.53-12.61-16.76
	c-8.44-4.21-17.97-5.71-27.3-4.3c-9.54,1.02-18.52,5.01-25.66,11.42 M86.39,373.75c-0.93-10.06,3.05-19.94,10.68-26.55
	c8.46-7.63,19.09-12.4,30.41-13.65c11.36-1.62,22.94,0.41,33.08,5.79c9.05,4.53,15.35,13.15,16.91,23.14l0,0
	c0.93,10.06-3.05,19.94-10.68,26.55c-8.46,7.63-19.09,12.4-30.41,13.65l0,0c-11.3,1.63-22.82-0.34-32.93-5.64
	C94.31,392.52,87.95,383.83,86.39,373.75z"/>
<path d="M99.45,375.38c-2.34-0.4-3.92-2.62-3.51-4.97c0.4-2.34,2.62-3.92,4.97-3.51c0.66,0.11,1.28,0.37,1.81,0.77
	c19.88,8.46,25.81,1.78,31.3-4.45s13.5-14.83,32.64-6.08c2.13,0.98,3.06,3.51,2.08,5.64c-0.98,2.13-3.51,3.06-5.64,2.08
	c-13.5-6.38-17.95-1.34-22.7,4.15c-7.42,8.46-14.83,17.51-40.94,6.68"/>
<path d="M216.2,329.1c2.34,0.44,3.87,2.69,3.43,5.02c-0.33,1.74-1.69,3.1-3.43,3.43h-4.75c-15.47,0.12-30.13-6.88-39.76-18.99
	c-10.23-13.61-15.47-30.31-14.83-47.32c0.44-2.34,2.69-3.87,5.02-3.43c1.74,0.33,3.1,1.69,3.43,3.43
	c-0.51,14.93,4.1,29.58,13.05,41.54c7.92,10.25,20.13,16.27,33.08,16.32H216.2z"/>
<path class="st3" d="M270.79,197.36L270.79,197.36c-5.7-0.03-11.11-2.51-14.83-6.82c-4.09-4.51-6.36-10.38-6.38-16.47l0,0l0,0
	c-0.02-6.1,1.96-12.04,5.64-16.91c3.42-4.71,8.25-8.19,13.8-9.94c-2.9,4.3-5.39,8.87-7.42,13.65c-1.79,4.23-2.79,8.76-2.97,13.35
	C258.69,183.45,263.23,192.07,270.79,197.36z"/>
<path class="st4" d="M233.7,75.42c-1.56-3.07-3.45-5.95-5.64-8.6c1.29,2.98,2.33,6.05,3.12,9.2c0.78,3.31,1.28,6.69,1.48,10.09
	c0,0.74,0,1.63,0,2.52c-0.02,5.58-0.87,11.13-2.52,16.47l0,0c-1.04,3.12-2.23,6.23-3.56,9.35c-1.34,3.12-2.67,5.93-4.01,8.9
	l-1.34,2.97c-2.37,5.34-4.9,10.83-6.97,16.62l0,0c-1.18,3.13-2.07,6.35-2.67,9.64c-0.71,3.91-1.01,7.89-0.89,11.87l0,0
	c0,0,0,1.34,0,1.93c0.17,3.64,0.87,7.24,2.08,10.68l0,0c1.17,3.38,2.82,6.58,4.9,9.49l0,0l0,0c-0.8-2.37-1.39-4.8-1.78-7.27
	c-0.2-2.42-0.2-4.85,0-7.27c0-0.89,0-1.78,0-2.82c0-1.04,0-1.63,0-2.52l0,0c1.82-10.04,5.28-19.71,10.24-28.63l4.3-8.9l0,0
	c1.64-3.62,3.08-7.34,4.3-11.13c1.16-3.31,2.15-6.68,2.97-10.09l0,0c0.4-1.81,0.7-3.64,0.89-5.49c0.41-3.7,0.41-7.43,0-11.13
	c-0.2-1.79-0.5-3.58-0.89-5.34l0,0C236.81,82.29,235.46,78.75,233.7,75.42 M216.64,45.75l4.6,2.97l4.45,3.56l2.23,1.93l2.37,2.97
	l0,0l4.45,3.41l0,0c5.39,6.47,9.24,14.08,11.27,22.25l0,0c1.42,6.27,1.78,12.75,1.04,19.14c-0.23,2.14-0.58,4.27-1.04,6.38l0,0
	c-0.9,3.66-1.99,7.28-3.26,10.83c-1.3,3.68-2.78,7.3-4.45,10.83l-4.3,9.2c-4.53,8.09-7.73,16.86-9.49,25.96l0,0c0,0,0,1.34,0,2.08
	c0,0.74,0,1.48,0,2.37c0,3.94,0.65,7.85,1.93,11.57c1.12,3.13,2.41,6.2,3.86,9.2c1.43,3,3.01,5.92,4.75,8.75
	c1.08,2.12,0.24,4.71-1.88,5.79c-1.23,0.62-2.68,0.62-3.9,0c-3.45-1.98-6.68-4.32-9.64-6.97l0,0c-2.85-2.6-5.44-5.49-7.71-8.6l0,0
	c-2.71-3.05-5.01-6.44-6.82-10.09l0,0c-1.47-4.21-2.32-8.6-2.52-13.05c0-0.74,0-1.48,0-2.23l0,0c0.01-7.64,1.36-15.23,4.01-22.4
	c2.08-6.23,4.75-12.02,7.27-17.51l1.34-2.82v-1.34c1.34-2.67,2.67-5.49,3.86-8.46c1.19-2.97,2.37-5.79,3.41-8.9l0,0
	c1.55-4.79,2.3-9.8,2.23-14.83c0,0,0-1.34,0-1.93c-0.73-5.41-2.33-10.67-4.75-15.58l0,0c-1.34-2.97-2.82-6.08-4.45-9.05
	c-1.63-2.97-2.97-5.93-4.6-8.75c-1.35-1.96-0.86-4.64,1.1-5.98c0.93-0.64,2.08-0.89,3.2-0.69l0,0H216.64z"/>
</svg>
